<svg width="856" height="175" viewBox="0 0 856 175" fill="none" xmlns="http://www.w3.org/2000/svg">
<rect x="39" y="41" width="50" height="33" fill="#3869BD"/>
<path d="M530.5 49.5C531 48 532.586 51.4089 533.5 51.5C534.455 51.5952 535.5 48.5 537 50L550 58V86H518L530.5 49.5Z" fill="#386AB9"/>
<path d="M647.201 42.7395C635.201 32.2395 641.701 15.6566 654.201 13.2395C665.519 11.0511 677.306 24.2396 671.701 37.2395C667.688 46.5498 654.832 49.4158 647.201 42.7395Z" fill="#FFCC02"/>
<path fill-rule="evenodd" clip-rule="evenodd" d="M839.701 75.2395C817.201 54.2395 765.201 60.4998 762.201 108.74C761.175 125.24 768.201 141.264 790.201 142.24C817.664 143.457 830.701 137.32 843.201 122.24C844.201 121.033 826.386 98.2915 825.201 99.7395C824.562 100.521 823.906 101.355 823.228 102.215C819.137 107.41 814.271 113.588 807.701 115.24C817.222 103.491 824.544 94.943 829.78 88.8307C837.468 79.8553 840.658 76.1319 839.701 75.2395ZM788.701 107.24L804.201 88.2395C800.311 87.2164 794.701 87.7395 790.201 93.2395C788.201 95.684 787.201 101.24 788.701 107.24Z" fill="#FFCC02"/>
<path fill-rule="evenodd" clip-rule="evenodd" d="M456.201 68.2395C456.201 68.2395 455.772 49.31 454.701 48.2395C453.927 47.4647 446.701 48.2395 446.701 48.2395C445.701 48.7395 447.701 28.7395 449.201 28.2395L484.701 14.2395C486.811 13.3956 486.974 36.0088 487.114 55.448L487.114 55.4577L487.114 55.4677C487.14 59.0559 487.165 62.5358 487.201 65.7395L490.201 54.2395L518.5 59.5C518.5 89.2395 526.5 107.74 532 109.74C537 108.24 545.5 89.2395 548 62.2395H565.201C572.254 52.9591 578.217 49.8622 596.201 50.7395C616.701 51.7395 627.88 54.9959 646.201 62.2395L672.701 51.7395L673.201 54.7395C674 54 703.201 54.7395 703.201 56.2395L716.701 91.7395L731.201 57.2395C731.5 56 768.5 60 767.701 60.7395L733.201 147.74C732.5 150 702 150.5 701.201 147.74L674.201 81.7395L676.201 152.24C676.201 154 643.701 155 643.701 153.24V129.24C631.201 152.24 607.201 147.74 558.701 132.74C542.201 150.24 497.201 142.24 491.701 118.74L493.701 156.74C493.701 158.74 460.701 159.24 460.701 156.74L459.701 118.74C442.701 150.24 388.184 146.74 382.201 113.24C379.255 96.7395 393.201 56.5411 419.701 54.2395C438.853 52.5761 450.201 57.7395 456.201 68.2395ZM604.309 86.7896C616.975 88.0443 633.681 89.6992 643.701 109.74L643.201 89.2395C639.297 90.4597 630.165 88.5148 620.5 85.5C610.361 82.3375 599.911 76.8418 593 77.5C590.497 77.7384 588.787 81.4651 590.701 83.7395C593.791 85.7477 598.646 86.2287 604.309 86.7896ZM573.701 103.24L572.701 106.74C604.309 121.5 616.201 113.74 609.701 112.74C594.303 110.988 586.778 108.726 573.701 103.24ZM436.201 90.7395L456.701 85.7395C456.554 93.6405 456.994 98.0058 458.201 105.74C450.549 102.705 437.632 99.7395 436.701 101.74C426.701 123.24 411.201 118.74 412.701 100.24C413.999 84.2395 431.701 81.7396 436.201 90.7395Z" fill="#FFCC02"/>
<path fill-rule="evenodd" clip-rule="evenodd" d="M160.202 71.7395C128.702 47.7395 103.201 66.2395 91.2015 89.2395C88.9439 93.5666 87.1054 109.027 92.2015 122.74C97.308 136.48 114.201 145.907 127.701 142.24C146.143 137.23 152.745 131.708 162.702 116.74L164.702 157.24C164.702 158.5 198.702 158.5 198.702 157.24V128.24C198.702 128.24 244.702 164.74 246.702 162.24C248.702 159.74 247.202 141.74 247.202 141.74C284.011 143.369 299.517 139.463 309.701 121.24L291.701 99.2395C285.201 108.74 281.91 113.268 274.201 115.24L305.201 77.2395L324.701 103.24L292.701 146.74C291.701 148.24 329.701 148.74 330.701 146.74C332.456 144.569 334.356 141.985 336.187 139.495C339.917 134.422 343.36 129.74 344.701 129.74C345.402 129.74 346.961 132.126 349.094 135.39C351.525 139.111 354.702 143.974 358.201 147.74C358.201 149.24 395.701 148.74 395.701 147.74C395.701 145.937 363.201 103.24 363.201 103.24C379.002 84.2126 400.201 57.7395 398.701 55.7395C397.201 53.7395 362 54.2395 360.701 56.2395C359.403 58.2395 345.701 77.7395 344.201 77.7395C342.935 77.7395 336.203 68.5345 330.33 60.5051C329.244 59.0213 328.188 57.5776 327.201 56.2395C327.201 54.7395 289.201 55.2395 289.201 56.2395L298.701 69.2395C274.869 61.9955 262.001 62.2674 240.702 77.2395L218.202 73.2395C216.888 72.9768 212.604 75.7025 207.494 78.9545C202.878 81.8915 197.588 85.2578 193.202 87.2395C193.202 87.2395 190.202 14.9062 188.202 14.2395C187.202 13.9062 154.702 25.1138 152.702 28.7395C151.322 31.2395 149.202 47.7395 149.202 47.7395H158.702L160.202 71.7395ZM214.702 108.74L230.702 95.7395C226.872 105.743 227.282 111.383 229.702 120.24L214.702 108.74ZM254.702 107.24C253.202 103.24 252.202 97.7395 258.202 91.7395C263.202 87.2395 267.201 87.2395 270.201 88.2395L254.702 107.24ZM125.201 101.24C116.855 94.5627 118.201 85.7395 130.201 79.2395C130.132 79.7332 130.054 80.2351 129.975 80.7417C129.283 85.2142 128.534 90.0479 132.701 92.7395C137.578 95.8894 141.2 93.6786 146.201 88.2395C146.201 102.24 132.701 107.24 125.201 101.24Z" fill="#FFCC02"/>
<path fill-rule="evenodd" clip-rule="evenodd" d="M13.2015 33.7395C70.2015 12.7395 98.2015 19.7395 104.201 35.7395C110.201 51.7395 93.5815 68.3474 71.2015 89.2395L81.7015 129.74C82.2015 131.24 62.2015 146.24 61.7015 144.74L32.2015 60.2395L26.7015 67.7395C24.7015 70.2395 11.2015 34.4764 13.2015 33.7395ZM76.7015 51.7395C77.9515 49.7395 58.1151 50.327 59.7015 54.7395C60.2392 56.2352 60.7994 58.1531 61.3492 60.0351C62.4213 63.7055 63.4536 67.2395 64.2015 67.2395C65.7015 67.2395 74.2015 55.7395 76.7015 51.7395Z" fill="#FFCC02"/>
<path d="M487.114 55.448C486.974 36.0088 486.811 13.3956 484.701 14.2395L449.201 28.2395C447.701 28.7395 445.701 48.7395 446.701 48.2395C446.701 48.2395 453.927 47.4647 454.701 48.2395C455.772 49.31 456.201 68.2395 456.201 68.2395C450.201 57.7395 438.853 52.5761 419.701 54.2395C393.201 56.5411 379.255 96.7395 382.201 113.24C388.184 146.74 442.701 150.24 459.701 118.74L460.701 156.74C460.701 159.24 493.701 158.74 493.701 156.74L491.701 118.74C497.201 142.24 542.201 150.24 558.701 132.74C607.201 147.74 631.201 152.24 643.701 129.24V153.24C643.701 155 676.201 154 676.201 152.24L674.201 81.7395L701.201 147.74C702 150.5 732.5 150 733.201 147.74L767.701 60.7395C768.5 60 731.5 56 731.201 57.2395L716.701 91.7395L703.201 56.2395C703.201 54.7395 674 54 673.201 54.7395L672.701 51.7395L646.201 62.2395C627.88 54.9959 616.701 51.7395 596.201 50.7395C578.217 49.8622 572.254 52.9591 565.201 62.2395H548C545.5 89.2395 537 108.24 532 109.74C526.5 107.74 518.5 89.2395 518.5 59.5L490.201 54.2395L487.201 65.7395C487.165 62.5358 487.14 59.0559 487.114 55.4677M487.114 55.448L487.114 55.4577M487.114 55.448C487.114 55.4513 487.114 55.4545 487.114 55.4577M487.114 55.4577L487.114 55.4677M487.114 55.4577C487.114 55.461 487.114 55.4643 487.114 55.4677M13.2015 33.7395C70.2015 12.7395 98.2015 19.7395 104.201 35.7395C110.201 51.7395 93.5815 68.3474 71.2015 89.2395L81.7015 129.74C82.2015 131.24 62.2015 146.24 61.7015 144.74L32.2015 60.2395L26.7015 67.7395C24.7015 70.2395 11.2015 34.4764 13.2015 33.7395ZM59.7015 54.7395C58.1151 50.327 77.9515 49.7395 76.7015 51.7395C74.2015 55.7395 65.7015 67.2395 64.2015 67.2395C63.4536 67.2395 62.4213 63.7055 61.3492 60.0351C60.7994 58.1531 60.2392 56.2352 59.7015 54.7395ZM160.202 71.7395C128.702 47.7395 103.201 66.2395 91.2015 89.2395C88.9439 93.5666 87.1054 109.027 92.2015 122.74C97.308 136.48 114.201 145.907 127.701 142.24C146.143 137.23 152.745 131.708 162.702 116.74L164.702 157.24C164.702 158.5 198.702 158.5 198.702 157.24V128.24C198.702 128.24 244.702 164.74 246.702 162.24C248.702 159.74 247.202 141.74 247.202 141.74C284.011 143.369 299.517 139.463 309.701 121.24L291.701 99.2395C285.201 108.74 281.91 113.268 274.201 115.24L305.201 77.2395L324.701 103.24L292.701 146.74C291.701 148.24 329.701 148.74 330.701 146.74C332.456 144.569 334.356 141.985 336.187 139.495C339.917 134.422 343.36 129.74 344.701 129.74C345.402 129.74 346.961 132.126 349.094 135.39C351.525 139.111 354.702 143.974 358.201 147.74C358.201 149.24 395.701 148.74 395.701 147.74C395.701 145.937 363.201 103.24 363.201 103.24C379.002 84.2126 400.201 57.7395 398.701 55.7395C397.201 53.7395 362 54.2395 360.701 56.2395C359.403 58.2395 345.701 77.7395 344.201 77.7395C342.935 77.7395 336.203 68.5345 330.33 60.5051C329.244 59.0213 328.188 57.5776 327.201 56.2395C327.201 54.7395 289.201 55.2395 289.201 56.2395L298.701 69.2395C274.869 61.9955 262.001 62.2674 240.702 77.2395L218.202 73.2395C216.888 72.9768 212.604 75.7025 207.494 78.9545C202.878 81.8915 197.588 85.2578 193.202 87.2395C193.202 87.2395 190.202 14.9062 188.202 14.2395C187.202 13.9062 154.702 25.1138 152.702 28.7395C151.322 31.2395 149.202 47.7395 149.202 47.7395H158.702L160.202 71.7395ZM130.201 79.2395C118.201 85.7395 116.855 94.5627 125.201 101.24C132.701 107.24 146.201 102.24 146.201 88.2395C141.2 93.6786 137.578 95.8894 132.701 92.7395C128.534 90.0479 129.283 85.2142 129.975 80.7417C130.054 80.2351 130.132 79.7332 130.201 79.2395ZM230.702 95.7395L214.702 108.74L229.702 120.24C227.282 111.383 226.872 105.743 230.702 95.7395ZM254.702 107.24C253.202 103.24 252.202 97.7395 258.202 91.7395C263.202 87.2395 267.201 87.2395 270.201 88.2395L254.702 107.24ZM456.701 85.7395L436.201 90.7395C431.701 81.7396 413.999 84.2395 412.701 100.24C411.201 118.74 426.701 123.24 436.701 101.74C437.632 99.7395 450.549 102.705 458.201 105.74C456.994 98.0058 456.554 93.6405 456.701 85.7395ZM573.701 103.24L572.701 106.74C604.309 121.5 616.201 113.74 609.701 112.74C594.303 110.988 586.778 108.726 573.701 103.24ZM643.701 109.74L643.201 89.2395C639.297 90.4597 630.165 88.5148 620.5 85.5C610.361 82.3375 599.911 76.8418 593 77.5C590.497 77.7384 588.787 81.4651 590.701 83.7395C593.791 85.7477 598.646 86.2287 604.309 86.7896C616.975 88.0443 633.681 89.6992 643.701 109.74ZM839.701 75.2395C817.201 54.2395 765.201 60.4998 762.201 108.74C761.175 125.24 768.201 141.264 790.201 142.24C817.664 143.457 830.701 137.32 843.201 122.24C844.201 121.033 826.386 98.2915 825.201 99.7395C824.562 100.521 823.906 101.355 823.228 102.215C819.137 107.41 814.271 113.588 807.701 115.24C817.222 103.491 824.544 94.943 829.78 88.8307C837.468 79.8553 840.658 76.1319 839.701 75.2395ZM804.201 88.2395L788.701 107.24C787.201 101.24 788.201 95.684 790.201 93.2395C794.701 87.7395 800.311 87.2164 804.201 88.2395ZM654.201 13.2395C641.701 15.6566 635.201 32.2395 647.201 42.7395C654.832 49.4158 667.688 46.5498 671.701 37.2395C677.306 24.2396 665.519 11.0511 654.201 13.2395Z" stroke="#386AB9" stroke-width="25"/>
<path d="M647.201 42.7395C635.201 32.2395 641.701 15.6566 654.201 13.2395C665.519 11.0511 677.306 24.2396 671.701 37.2395C667.688 46.5498 654.832 49.4158 647.201 42.7395Z" fill="#FFCC02"/>
<path fill-rule="evenodd" clip-rule="evenodd" d="M839.701 75.2395C817.201 54.2395 765.201 60.4998 762.201 108.74C761.175 125.24 768.201 141.264 790.201 142.24C817.664 143.457 830.701 137.32 843.201 122.24C844.201 121.033 826.386 98.2915 825.201 99.7395C824.562 100.521 823.906 101.355 823.228 102.215C819.137 107.41 814.271 113.588 807.701 115.24C817.222 103.491 824.544 94.943 829.78 88.8307C837.468 79.8553 840.658 76.1319 839.701 75.2395ZM788.701 107.24L804.201 88.2395C800.311 87.2164 794.701 87.7395 790.201 93.2395C788.201 95.684 787.201 101.24 788.701 107.24Z" fill="#FFCC02"/>
<path fill-rule="evenodd" clip-rule="evenodd" d="M456.201 68.2395C456.201 68.2395 455.772 49.31 454.701 48.2395C453.927 47.4647 446.701 48.2395 446.701 48.2395C445.701 48.7395 447.701 28.7395 449.201 28.2395L484.701 14.2395C486.811 13.3956 486.974 36.0088 487.114 55.448L487.114 55.4577L487.114 55.4677C487.14 59.0559 487.165 62.5358 487.201 65.7395L490.201 54.2395L524.201 59.2395C521.568 89.4066 526.201 111.74 531.701 113.74C536.701 112.24 542.266 90.8835 543.701 62.2395H565.201C572.254 52.9591 578.217 49.8622 596.201 50.7395C616.701 51.7395 627.88 54.9959 646.201 62.2395L672.701 51.7395L673.201 54.7395C674 54 703.201 54.7395 703.201 56.2395L716.701 91.7395L731.201 57.2395C731.5 56 768.5 60 767.701 60.7395L733.201 147.74C732.5 150 702 150.5 701.201 147.74L674.201 81.7395L676.201 152.24C676.201 154 643.701 155 643.701 153.24V129.24C631.201 152.24 607.201 147.74 558.701 132.74C542.201 150.24 497.201 142.24 491.701 118.74L493.701 156.74C493.701 158.74 460.701 159.24 460.701 156.74L459.701 118.74C442.701 150.24 388.184 146.74 382.201 113.24C379.255 96.7395 393.201 56.5411 419.701 54.2395C438.853 52.5761 450.201 57.7395 456.201 68.2395ZM604.309 86.7896C616.975 88.0443 633.681 89.6992 643.701 109.74L643.201 89.2395C639.297 90.4597 630.165 88.5148 620.5 85.5C610.361 82.3375 599.911 76.8418 593 77.5C590.497 77.7384 588.787 81.4651 590.701 83.7395C593.791 85.7477 598.646 86.2287 604.309 86.7896ZM573.701 103.24L572.701 106.74C604.309 121.5 616.201 113.74 609.701 112.74C594.303 110.988 586.778 108.726 573.701 103.24ZM436.201 90.7395L456.701 85.7395C456.554 93.6405 456.994 98.0058 458.201 105.74C450.549 102.705 437.632 99.7395 436.701 101.74C426.701 123.24 411.201 118.74 412.701 100.24C413.999 84.2395 431.701 81.7396 436.201 90.7395Z" fill="#FFCC02"/>
<path fill-rule="evenodd" clip-rule="evenodd" d="M160.202 71.7395C128.702 47.7395 103.201 66.2395 91.2015 89.2395C88.9439 93.5666 87.1054 109.027 92.2015 122.74C97.308 136.48 114.201 145.907 127.701 142.24C146.143 137.23 152.745 131.708 162.702 116.74L164.702 157.24C164.702 158.5 198.702 158.5 198.702 157.24V128.24C198.702 128.24 244.702 164.74 246.702 162.24C248.702 159.74 247.202 141.74 247.202 141.74C284.011 143.369 299.517 139.463 309.701 121.24L291.701 99.2395C285.201 108.74 281.91 113.268 274.201 115.24L305.201 77.2395L324.701 103.24L292.701 146.74C291.701 148.24 329.701 148.74 330.701 146.74C332.456 144.569 334.356 141.985 336.187 139.495C339.917 134.422 343.36 129.74 344.701 129.74C345.402 129.74 346.961 132.126 349.094 135.39C351.525 139.111 354.702 143.974 358.201 147.74C358.201 149.24 395.701 148.74 395.701 147.74C395.701 145.937 363.201 103.24 363.201 103.24C379.002 84.2126 400.201 57.7395 398.701 55.7395C397.201 53.7395 360.701 56.2395 360.701 56.2395C354.818 65.0665 345.701 77.7395 344.201 77.7395C342.935 77.7395 336.203 68.5345 330.33 60.5051C329.244 59.0213 328.188 57.5776 327.201 56.2395C327.201 54.7395 289.201 55.2395 289.201 56.2395L298.701 69.2395C274.869 61.9955 262.001 62.2674 240.702 77.2395L218.202 73.2395C216.888 72.9768 212.604 75.7025 207.494 78.9545C202.878 81.8915 197.588 85.2578 193.202 87.2395C193.202 87.2395 190.202 14.9062 188.202 14.2395C187.202 13.9062 154.702 25.1138 152.702 28.7395C151.322 31.2395 149.202 47.7395 149.202 47.7395H158.702L160.202 71.7395ZM214.702 108.74L230.702 95.7395C226.872 105.743 227.282 111.383 229.702 120.24L214.702 108.74ZM254.702 107.24C253.202 103.24 252.202 97.7395 258.202 91.7395C263.202 87.2395 267.201 87.2395 270.201 88.2395L254.702 107.24ZM125.201 101.24C116.855 94.5627 118.201 85.7395 130.201 79.2395C130.132 79.7332 130.054 80.2351 129.975 80.7417C129.283 85.2142 128.534 90.0479 132.701 92.7395C137.578 95.8894 141.2 93.6786 146.201 88.2395C146.201 102.24 132.701 107.24 125.201 101.24Z" fill="#FFCC02"/>
<path fill-rule="evenodd" clip-rule="evenodd" d="M13.2015 33.7395C70.2015 12.7395 98.2015 19.7395 104.201 35.7395C110.201 51.7395 93.5815 68.3474 71.2015 89.2395L81.7015 129.74C82.2015 131.24 62.2015 146.24 61.7015 144.74L32.2015 60.2395L26.7015 67.7395C24.7015 70.2395 11.2015 34.4764 13.2015 33.7395ZM76.7015 51.7395C77.9515 49.7395 58.1151 50.327 59.7015 54.7395C60.2392 56.2352 60.7994 58.1531 61.3492 60.0351C62.4213 63.7055 63.4536 67.2395 64.2015 67.2395C65.7015 67.2395 74.2015 55.7395 76.7015 51.7395Z" fill="#FFCC02"/>
<path d="M487.114 55.448C486.974 36.0088 486.811 13.3956 484.701 14.2395L449.201 28.2395C447.701 28.7395 445.701 48.7395 446.701 48.2395C446.701 48.2395 453.927 47.4647 454.701 48.2395C455.772 49.31 456.201 68.2395 456.201 68.2395C450.201 57.7395 438.853 52.5761 419.701 54.2395C393.201 56.5411 379.255 96.7395 382.201 113.24C388.184 146.74 442.701 150.24 459.701 118.74L460.701 156.74C460.701 159.24 493.701 158.74 493.701 156.74L491.701 118.74C497.201 142.24 542.201 150.24 558.701 132.74C607.201 147.74 631.201 152.24 643.701 129.24V153.24C643.701 155 676.201 154 676.201 152.24L674.201 81.7395L701.201 147.74C702 150.5 732.5 150 733.201 147.74L767.701 60.7395C768.5 60 731.5 56 731.201 57.2395L716.701 91.7395L703.201 56.2395C703.201 54.7395 674 54 673.201 54.7395L672.701 51.7395L646.201 62.2395C627.88 54.9959 616.701 51.7395 596.201 50.7395C578.217 49.8622 572.254 52.9591 565.201 62.2395H543.701C542.266 90.8835 536.701 112.24 531.701 113.74C526.201 111.74 521.568 89.4066 524.201 59.2395L490.201 54.2395L487.201 65.7395C487.165 62.5358 487.14 59.0559 487.114 55.4677M487.114 55.448L487.114 55.4577M487.114 55.448C487.114 55.4513 487.114 55.4545 487.114 55.4577M487.114 55.4577L487.114 55.4677M487.114 55.4577C487.114 55.461 487.114 55.4643 487.114 55.4677M13.2015 33.7395C70.2015 12.7395 98.2015 19.7395 104.201 35.7395C110.201 51.7395 93.5815 68.3474 71.2015 89.2395L81.7015 129.74C82.2015 131.24 62.2015 146.24 61.7015 144.74L32.2015 60.2395L26.7015 67.7395C24.7015 70.2395 11.2015 34.4764 13.2015 33.7395ZM59.7015 54.7395C58.1151 50.327 77.9515 49.7395 76.7015 51.7395C74.2015 55.7395 65.7015 67.2395 64.2015 67.2395C63.4536 67.2395 62.4213 63.7055 61.3492 60.0351C60.7994 58.1531 60.2392 56.2352 59.7015 54.7395ZM160.202 71.7395C128.702 47.7395 103.201 66.2395 91.2015 89.2395C88.9439 93.5666 87.1054 109.027 92.2015 122.74C97.308 136.48 114.201 145.907 127.701 142.24C146.143 137.23 152.745 131.708 162.702 116.74L164.702 157.24C164.702 158.5 198.702 158.5 198.702 157.24V128.24C198.702 128.24 244.702 164.74 246.702 162.24C248.702 159.74 247.202 141.74 247.202 141.74C284.011 143.369 299.517 139.463 309.701 121.24L291.701 99.2395C285.201 108.74 281.91 113.268 274.201 115.24L305.201 77.2395L324.701 103.24L292.701 146.74C291.701 148.24 329.701 148.74 330.701 146.74C332.456 144.569 334.356 141.985 336.187 139.495C339.917 134.422 343.36 129.74 344.701 129.74C345.402 129.74 346.961 132.126 349.094 135.39C351.525 139.111 354.702 143.974 358.201 147.74C358.201 149.24 395.701 148.74 395.701 147.74C395.701 145.937 363.201 103.24 363.201 103.24C379.002 84.2126 400.201 57.7395 398.701 55.7395C397.201 53.7395 360.701 56.2395 360.701 56.2395C354.818 65.0665 345.701 77.7395 344.201 77.7395C342.935 77.7395 336.203 68.5345 330.33 60.5051C329.244 59.0213 328.188 57.5776 327.201 56.2395C327.201 54.7395 289.201 55.2395 289.201 56.2395L298.701 69.2395C274.869 61.9955 262.001 62.2674 240.702 77.2395L218.202 73.2395C216.888 72.9768 212.604 75.7025 207.494 78.9545C202.878 81.8915 197.588 85.2578 193.202 87.2395C193.202 87.2395 190.202 14.9062 188.202 14.2395C187.202 13.9062 154.702 25.1138 152.702 28.7395C151.322 31.2395 149.202 47.7395 149.202 47.7395H158.702L160.202 71.7395ZM130.201 79.2395C118.201 85.7395 116.855 94.5627 125.201 101.24C132.701 107.24 146.201 102.24 146.201 88.2395C141.2 93.6786 137.578 95.8894 132.701 92.7395C128.534 90.0479 129.283 85.2142 129.975 80.7417C130.054 80.2351 130.132 79.7332 130.201 79.2395ZM230.702 95.7395L214.702 108.74L229.702 120.24C227.282 111.383 226.872 105.743 230.702 95.7395ZM254.702 107.24C253.202 103.24 252.202 97.7395 258.202 91.7395C263.202 87.2395 267.201 87.2395 270.201 88.2395L254.702 107.24ZM456.701 85.7395L436.201 90.7395C431.701 81.7396 413.999 84.2395 412.701 100.24C411.201 118.74 426.701 123.24 436.701 101.74C437.632 99.7395 450.549 102.705 458.201 105.74C456.994 98.0058 456.554 93.6405 456.701 85.7395ZM573.701 103.24L572.701 106.74C604.309 121.5 616.201 113.74 609.701 112.74C594.303 110.988 586.778 108.726 573.701 103.24ZM643.701 109.74L643.201 89.2395C639.297 90.4597 630.165 88.5148 620.5 85.5C610.361 82.3375 599.911 76.8418 593 77.5C590.497 77.7384 588.787 81.4651 590.701 83.7395C593.791 85.7477 598.646 86.2287 604.309 86.7896C616.975 88.0443 633.681 89.6992 643.701 109.74ZM839.701 75.2395C817.201 54.2395 765.201 60.4998 762.201 108.74C761.175 125.24 768.201 141.264 790.201 142.24C817.664 143.457 830.701 137.32 843.201 122.24C844.201 121.033 826.386 98.2915 825.201 99.7395C824.562 100.521 823.906 101.355 823.228 102.215C819.137 107.41 814.271 113.588 807.701 115.24C817.222 103.491 824.544 94.943 829.78 88.8307C837.468 79.8553 840.658 76.1319 839.701 75.2395ZM804.201 88.2395L788.701 107.24C787.201 101.24 788.201 95.684 790.201 93.2395C794.701 87.7395 800.311 87.2164 804.201 88.2395ZM654.201 13.2395C641.701 15.6566 635.201 32.2395 647.201 42.7395C654.832 49.4158 667.688 46.5498 671.701 37.2395C677.306 24.2396 665.519 11.0511 654.201 13.2395Z" stroke="black" stroke-width="2"/>
</svg>
